<?xml version="1.0" encoding="UTF-8" standalone="no"?>
<!-- Created with Inkscape (http://www.inkscape.org/) -->

<svg
   width="96"
   height="96"
   viewBox="0 0 25.399999 25.4"
   version="1.1"
   id="svg1"
   inkscape:version="1.3 (0e150ed, 2023-07-21)"
   sodipodi:docname="bluebird-96.svg"
   xmlns:inkscape="http://www.inkscape.org/namespaces/inkscape"
   xmlns:sodipodi="http://sodipodi.sourceforge.net/DTD/sodipodi-0.dtd"
   xmlns="http://www.w3.org/2000/svg"
   xmlns:svg="http://www.w3.org/2000/svg">
  <sodipodi:namedview
     id="namedview1"
     pagecolor="#ffffff"
     bordercolor="#000000"
     borderopacity="0.25"
     inkscape:showpageshadow="2"
     inkscape:pageopacity="0.0"
     inkscape:pagecheckerboard="0"
     inkscape:deskcolor="#d1d1d1"
     inkscape:document-units="mm"
     inkscape:zoom="2"
     inkscape:cx="137.25"
     inkscape:cy="36.75"
     inkscape:window-width="1392"
     inkscape:window-height="1212"
     inkscape:window-x="2743"
     inkscape:window-y="617"
     inkscape:window-maximized="0"
     inkscape:current-layer="layer1" />
  <defs
     id="defs1" />
  <g
     inkscape:label="Layer 1"
     inkscape:groupmode="layer"
     id="layer1">
    <path
       style="fill:#00ffff;stroke-width:0.0425655"
       d="M 7.7455473,23.668808 C 6.9660554,23.451958 5.9303554,22.437896 4.9010222,20.883697 4.5490049,20.352173 4.5182248,20.194455 4.7249477,19.980708 c 0.098356,-0.101861 0.1947357,-0.141448 0.4917352,-0.20236 0.5591134,-0.114625 1.2475822,-0.341827 2.1144966,-0.697799 0.7515659,-0.308614 2.2710097,-1.017525 2.34504,-1.094113 0.019759,-0.02021 -0.2122993,-0.04988 -0.5163242,-0.06577 -1.22262,-0.064 -3.4366579,-0.390363 -3.7227021,-0.548729 -0.1007709,-0.05578 -0.2068107,-0.263329 -0.2068107,-0.404524 0,-0.05889 0.049397,-0.167816 0.1097721,-0.242092 0.060375,-0.07427 0.1027467,-0.141584 0.094184,-0.149601 C 5.4255586,16.56782 5.1644309,16.48217 4.8537099,16.385647 4.1381278,16.163343 4.0031301,16.10361 3.8950265,15.961431 3.7922798,15.826184 3.7793267,15.57255 3.8684616,15.440805 3.9268604,15.354388 3.9154441,15.3436 3.5848983,15.174133 3.1418799,14.94704 2.5991665,14.58529 2.4789441,14.436966 c -0.061911,-0.07633 -0.093965,-0.173335 -0.094184,-0.28399 -1.756e-4,-0.1372 0.027663,-0.195206 0.151266,-0.315881 0.083427,-0.08131 0.1444601,-0.153508 0.1358979,-0.160435 -0.00878,-0.007 -0.1077962,-0.07722 -0.2207298,-0.156187 -0.396936,-0.277667 -0.903732,-0.873216 -0.967795,-1.137306 -0.063448,-0.261594 0.210982,-0.55148 0.5221202,-0.55148 h 0.131507 L 1.9249461,11.561104 C 1.5507329,11.083528 1.2356869,10.353472 1.1275175,9.713247 1.0664842,9.3523196 1.100294,9.1800094 1.2590245,9.0418845 L 1.3863601,8.9310521 h 3.9725436 c 2.1848825,0 3.9724777,-0.014535 3.9724337,-0.032478 C 9.3312716,8.8806325 9.2459347,8.6907639 9.1418708,8.4764668 8.9405487,8.0620878 8.6343503,7.1471779 8.5933175,6.837406 8.5498477,6.5088629 8.7252636,6.2814999 9.0225484,6.2814999 c 0.1626823,0 0.160926,0.00613 0.080353,-0.2757115 C 9.013108,5.6913425 8.9127763,5.0557416 8.9127763,4.8005046 c 0,-0.1359286 0.026565,-0.262114 0.068278,-0.323601 0.08189,-0.1208027 0.3185367,-0.2313944 0.4141044,-0.193457 0.059496,0.023575 0.065205,3.679e-4 0.044128,-0.1736071 C 9.4261147,3.9993932 9.4048189,3.8251684 9.392744,3.7226757 9.3490547,3.3571946 9.5095415,2.28565 9.6516964,1.9940337 9.7489545,1.794649 10.030564,1.6882408 10.205233,1.7849511 c 0.0404,0.022257 1.606274,1.5211811 3.47993,3.3308057 l 3.406625,3.290227 0.377989,-0.3764031 c 0.672201,-0.6693775 1.406774,-1.1710893 2.109184,-1.4405687 0.65523,-0.2513737 1.334301,-0.1805341 1.960288,0.2045175 0.265626,0.1633869 0.714133,0.5773799 0.89484,0.8259896 0.09858,0.1354744 0.116798,0.1414248 0.770469,0.2496567 0.709545,0.1174869 0.831414,0.1685197 0.937454,0.3925578 0.05027,0.1061311 0.05027,0.1488515 0,0.2991589 -0.0562,0.1680882 -0.08453,0.1890963 -0.686362,0.5072874 -0.544711,0.2880416 -0.627259,0.3452974 -0.624032,0.4329322 0.002,0.055552 0.0281,0.373739 0.05796,0.7070969 0.06455,0.719668 0.03535,2.007097 -0.06213,2.749117 -0.269688,2.051294 -1.031331,3.89964 -2.203213,5.346713 -0.759557,0.937923 -1.734839,1.519959 -3.189188,1.903269 -1.217021,0.320756 -2.107778,0.42108 -3.859127,0.434648 l -1.38416,0.01067 -1.249844,1.030516 c -2.5942007,2.13894 -2.6100737,2.148792 -3.1965862,1.98563 z M 20.363129,9.2167771 C 20.483,9.092772 20.505394,9.0387412 20.505394,8.8737532 c 0,-0.1462851 -0.02679,-0.2287258 -0.105821,-0.3258449 -0.355596,-0.4371701 -1.029465,0.015217 -0.792423,0.5320499 0.08628,0.1880062 0.233595,0.2799289 0.452481,0.2822818 0.128653,0.00138 0.189686,-0.027912 0.30341,-0.1454675 z"
       id="path2" />
  </g>
</svg>
